
<svg xmlns="http://www.w3.org/2000/svg" version="1.1" xmlns:xlink="http://www.w3.org/1999/xlink" preserveAspectRatio="none" x="0px" y="0px" width="550px" height="400px" viewBox="0 0 550 400">
<defs>
<g id="Layer0_0_FILL">
<path fill="#000000" stroke="none" d="
M 292 218.9
Q 294 217.85 295.7 216.55 297.9 214.8 301 210.6 302.9 207.5 304.05 203.7 291.75 202.65 286.35 202.65 278.8 203.05 275.75 203.65 271.3 204.55 268.1 206.25 265.1 207.8 263.45 209.9 261.9 211.95 261.9 214.2 261.9 215.85 262.75 217.25 263.65 218.75 265.4 219.85 267.2 221 269.8 221.65 272.55 222.3 276.05 222.3 279.35 222.3 282.25 221.9 285.1 221.5 287.55 220.7 289.95 220 292 218.9
M 319.4 210
Q 320 207.3 320.45 204.85 312.1 204.4 307.2 203.95 305.5 209.35 304 211.85 302.85 213.85 301.45 215.5 299.95 217.3 298.15 218.75 296.25 220.25 294.05 221.5 291.7 222.7 289.05 223.55 286.25 224.5 283.1 224.95 281.35 225.2 279.5 225.3 279.55 225.35 279.65 225.45 281.25 227 282.7 229.6 285.45 234.45 287 246.8 288.25 256.35 293.95 256.7 295.6 256.8 297.6 256.15 300.6 254.3 303.75 250.05 309.8 241.85 313.55 230.5 314.4 227.9 315.2 225.45 317.85 216.9 319.4 210
M 271.75 164.3
Q 267.85 164.75 264.25 165.5 260.85 166.3 257.75 167.45 254.85 168.5 252.3 169.85 256.5 171.35 265.5 173.85 269.2 174.65 272.9 175.1 276.95 175.55 281.15 175.55 284.2 175.55 286.55 175.05 288.8 174.55 290.3 173.7 291.7 172.85 292.45 171.7 293.1 170.65 293.1 169.45 293.1 168.3 292.2 167.25 291.3 166.25 289.6 165.5 287.9 164.75 285.55 164.3 283.15 163.85 280.3 163.85 275.85 163.85 271.75 164.3
M 229.8 162.7
Q 231.75 163.05 233.7 163.55 243.8 166.7 248.6 168.5 251.35 166.75 254.6 165.35 258 163.95 261.85 162.9 265.95 161.85 270.4 161.35 275.2 160.75 280.3 160.75 283.8 160.75 286.85 161.45 289.75 162.1 291.9 163.35 294.05 164.55 295.2 166.15 296.35 167.8 296.35 169.65 296.35 171.4 295.5 173 294.55 174.65 292.75 175.85 290.8 177.2 288 177.9 285 178.7 281.15 178.7 276.15 178.7 271.5 178.1 267.3 177.6 263.15 176.6
L 248.75 171.95
Q 246.65 173.35 245 175 243.4 176.55 242.35 178.25 241.3 179.85 240.75 181.4 240.2 183 240.2 184.4 240.2 187.05 241.2 189.05 242.35 191.25 244.7 192.7 247.2 194.3 251.2 195.05 253.95 195.6 261.35 195.9 266.9 195.9 272.85 195.1 278.2 194.35 283.95 193 291.1 191.25 303.7 186.7 305.1 186.15 306.35 186.45 308.05 186.85 308.2 188.75 308.5 192.35 308.5 193.75 308.5 197.45 307.85 201 312.7 201.4 320.95 201.8 321.1 200.4 321.25 199.15 323.65 176.1 321.8 165.9 320 155.7 314.7 148.65 309.45 141.6 295.6 143.85 292.9 144.3 290.05 145.15 282.95 147.2 277.35 147.4 275.75 147.45 274.3 147.35 273.95 147.35 273.6 147.35 267.95 147.15 260.9 145.1 258.05 144.25 255.35 143.8 241.5 141.55 236.25 148.6 231.8 154.55 229.8 162.7
M 229.2 165.75
Q 229.15 165.8 229.15 165.85 227.3 176.05 229.7 199.1 230.8 209.3 235.8 225.45 236.55 227.9 237.4 230.45 241.15 241.8 247.2 250 250.35 254.25 253.35 256.1 262.35 259.05 263.95 246.75 265.5 234.4 268.25 229.55 269.7 227 271.25 225.45 271.4 225.3 271.6 225.15 269.9 224.9 268.4 224.5 265.25 223.65 263 222.05 260.95 220.55 259.85 218.45 258.8 216.45 258.8 214.2 258.8 212.8 259.25 211.4 259.7 210.05 260.55 208.75 261.45 207.45 262.75 206.3
L 265.8 204.1 269.7 202.2 274.4 200.8
Q 277.85 200 286.35 199.55 292.05 199.55 304.75 200.65 305.4 197.35 305.4 193.75 305.4 191.55 305.2 189.6 299.1 191.85 292.8 193.65 286.75 195.4 280.9 196.6 275.25 197.8 270.2 198.4 265.25 199.05 261.35 199.05 252.8 198.7 249.65 198.05
L 245.45 196.85
Q 243.65 196.1 242.2 195.15 240.85 194.25 239.8 193.05 238.85 191.95 238.25 190.6 237.1 188 237.1 184.4 237.1 182.8 237.6 181.1 238.15 179.35 239.2 177.6 240.25 175.85 241.8 174.1 243.4 172.3 245.45 170.7 241.2 169.1 232.1 166.35 230.65 166 229.2 165.75 Z"/>
</g>
</defs>

<g transform="matrix( 1, 0, 0, 1, 0,0) ">
<use xlink:href="#Layer0_0_FILL"/>
</g>
</svg>
