<?xml version="1.0" encoding="utf-8"?>
<!-- Generator: Adobe Illustrator 19.2.1, SVG Export Plug-In . SVG Version: 6.00 Build 0)  -->
<svg version="1.1" id="Layer_1" xmlns="http://www.w3.org/2000/svg" xmlns:xlink="http://www.w3.org/1999/xlink" x="0px" y="0px"
	 viewBox="0 0 500 500" style="enable-background:new 0 0 500 500;" xml:space="preserve">
<g transform="matrix( 1, 0, 0, 1, 0,0) ">
	<g>
		<g id="Layer0_0_FILL">
			<path d="M250.4,173.8c-1.3-0.4-2.3-0.4-3.1,0l-64.3,40.2c-0.8,0.6-1.2,1.4-1.2,2.2v74.2h61.2c0.6,0,1.1-0.2,1.5-0.7
				c0.4-0.4,0.6-0.9,0.6-1.5c0-0.6-0.2-1-0.6-1.4c-0.4-0.4-0.9-0.6-1.5-0.6h-7.5V283h7.5c0.6,0,1.1-0.2,1.5-0.7
				c0.4-0.4,0.6-0.9,0.6-1.5c0-0.6-0.2-1-0.6-1.4c-0.4-0.4-0.9-0.6-1.5-0.6h-7.5v-3.3h7.5c0.6,0,1.1-0.2,1.5-0.7
				c0.4-0.4,0.6-0.9,0.6-1.5c0-0.6-0.2-1-0.6-1.4c-0.4-0.4-0.9-0.6-1.5-0.6h-7.5V268h7.5c0.6,0,1.1-0.2,1.5-0.7
				c0.4-0.4,0.6-0.9,0.6-1.5c0-0.6-0.2-1-0.6-1.4c-0.4-0.4-0.9-0.6-1.5-0.6h-34.6V232c0-1,0.5-1.7,1.4-2.2l37.7-23.4
				c1-0.6,1.9-0.6,2.9,0l37.6,23.4c0.8,0.6,1.1,1.4,1.1,2.2v68.8H183.8c-0.6,0-1.1,0.2-1.5,0.6c-0.3,0.4-0.5,0.9-0.5,1.5
				c0,0.6,0.2,1,0.5,1.5c0.4,0.4,0.9,0.6,1.5,0.6h7.5v3.2h-7.5c-0.6,0-1.1,0.2-1.5,0.6c-0.3,0.4-0.5,0.9-0.5,1.5
				c0,0.6,0.2,1,0.5,1.5c0.4,0.4,0.9,0.6,1.5,0.6h7.5v3.2h-7.5c-0.6,0-1.1,0.2-1.5,0.6c-0.3,0.4-0.5,0.9-0.5,1.5
				c0,0.6,0.2,1,0.5,1.5c0.4,0.4,0.9,0.6,1.5,0.6h7.5v3.2h-7.5c-0.6,0-1.1,0.2-1.5,0.6c-0.3,0.4-0.5,0.9-0.5,1.5
				c0,0.6,0.2,1,0.5,1.5c0.4,0.4,0.9,0.6,1.5,0.6H316V216.3c0-1.1-0.4-1.8-1.3-2.2L250.4,173.8z"/>
		</g>
	</g>
</g>
</svg>
